<mxfile host="app.diagrams.net" modified="2025-10-06T21:00:00.000Z" agent="5.0" etag="mermaid-conversion" version="24.7.16" type="device">
  <diagram name="Arquitetura PokeAPI" id="mermaid-diagram">
    <mxGraphModel dx="1422" dy="754" grid="1" gridSize="10" guides="1" tooltips="1" connect="1" arrows="1" fold="1" page="1" pageScale="1" pageWidth="1400" pageHeight="850" math="0" shadow="0">
      <root>
        <mxCell id="0"/>
        <mxCell id="1" parent="0"/>

        <!-- Frontend Group -->
        <mxCell id="frontend-group" value="Frontend" style="swimlane;whiteSpace=wrap;html=1;fillColor=#e1f5fe;strokeColor=#01579b;fontStyle=1;fontSize=14;startSize=30;swimlaneLine=1;" vertex="1" parent="1">
          <mxGeometry x="40" y="60" width="240" height="100" as="geometry"/>
        </mxCell>
        <mxCell id="WEB" value="Interface Web - Thymeleaf" style="rounded=1;whiteSpace=wrap;html=1;fillColor=#e1f5fe;strokeColor=#01579b;fontSize=11;" vertex="1" parent="frontend-group">
          <mxGeometry x="20" y="40" width="90" height="40" as="geometry"/>
        </mxCell>
        <mxCell id="BROWSER" value="Navegador" style="rounded=1;whiteSpace=wrap;html=1;fillColor=#e1f5fe;strokeColor=#01579b;fontSize=11;" vertex="1" parent="frontend-group">
          <mxGeometry x="130" y="40" width="80" height="40" as="geometry"/>
        </mxCell>

        <!-- API Layer Group -->
        <mxCell id="api-group" value="API Layer" style="swimlane;whiteSpace=wrap;html=1;fillColor=#f3e5f5;strokeColor=#7b1fa2;fontStyle=1;fontSize=14;startSize=30;swimlaneLine=1;" vertex="1" parent="1">
          <mxGeometry x="340" y="60" width="360" height="100" as="geometry"/>
        </mxCell>
        <mxCell id="WC" value="WebController" style="rounded=1;whiteSpace=wrap;html=1;fillColor=#f3e5f5;strokeColor=#7b1fa2;fontSize=11;" vertex="1" parent="api-group">
          <mxGeometry x="20" y="40" width="90" height="40" as="geometry"/>
        </mxCell>
        <mxCell id="BC" value="BattleController" style="rounded=1;whiteSpace=wrap;html=1;fillColor=#f3e5f5;strokeColor=#7b1fa2;fontSize=11;" vertex="1" parent="api-group">
          <mxGeometry x="130" y="40" width="90" height="40" as="geometry"/>
        </mxCell>
        <mxCell id="PC" value="PokemonController" style="rounded=1;whiteSpace=wrap;html=1;fillColor=#f3e5f5;strokeColor=#7b1fa2;fontSize=11;" vertex="1" parent="api-group">
          <mxGeometry x="240" y="40" width="100" height="40" as="geometry"/>
        </mxCell>

        <!-- Service Layer Group -->
        <mxCell id="service-group" value="Service Layer" style="swimlane;whiteSpace=wrap;html=1;fillColor=#e8f5e8;strokeColor=#2e7d32;fontStyle=1;fontSize=14;startSize=30;swimlaneLine=1;" vertex="1" parent="1">
          <mxGeometry x="340" y="220" width="360" height="100" as="geometry"/>
        </mxCell>
        <mxCell id="BS" value="BattleService" style="rounded=1;whiteSpace=wrap;html=1;fillColor=#e8f5e8;strokeColor=#2e7d32;fontSize=11;" vertex="1" parent="service-group">
          <mxGeometry x="20" y="40" width="90" height="40" as="geometry"/>
        </mxCell>
        <mxCell id="PS" value="PokemonService" style="rounded=1;whiteSpace=wrap;html=1;fillColor=#e8f5e8;strokeColor=#2e7d32;fontSize=11;" vertex="1" parent="service-group">
          <mxGeometry x="130" y="40" width="90" height="40" as="geometry"/>
        </mxCell>
        <mxCell id="RT" value="RestTemplate" style="rounded=1;whiteSpace=wrap;html=1;fillColor=#e8f5e8;strokeColor=#2e7d32;fontSize=11;" vertex="1" parent="service-group">
          <mxGeometry x="240" y="40" width="100" height="40" as="geometry"/>
        </mxCell>

        <!-- Data Layer Group -->
        <mxCell id="data-group" value="Data Layer" style="swimlane;whiteSpace=wrap;html=1;fillColor=#fff3e0;strokeColor=#f57c00;fontStyle=1;fontSize=14;startSize=30;swimlaneLine=1;" vertex="1" parent="1">
          <mxGeometry x="40" y="380" width="360" height="100" as="geometry"/>
        </mxCell>
        <mxCell id="BR" value="BattleRepository" style="rounded=1;whiteSpace=wrap;html=1;fillColor=#fff3e0;strokeColor=#f57c00;fontSize=11;" vertex="1" parent="data-group">
          <mxGeometry x="20" y="40" width="90" height="40" as="geometry"/>
        </mxCell>
        <mxCell id="PR" value="PokemonRepository" style="rounded=1;whiteSpace=wrap;html=1;fillColor=#fff3e0;strokeColor=#f57c00;fontSize=11;" vertex="1" parent="data-group">
          <mxGeometry x="130" y="40" width="100" height="40" as="geometry"/>
        </mxCell>
        <mxCell id="H2" value="H2 Database" style="shape=cylinder3;whiteSpace=wrap;html=1;boundedLbl=1;backgroundOutline=1;size=15;fillColor=#fff3e0;strokeColor=#f57c00;fontSize=11;" vertex="1" parent="data-group">
          <mxGeometry x="260" y="35" width="80" height="50" as="geometry"/>
        </mxCell>

        <!-- External API Group -->
        <mxCell id="external-group" value="External API" style="swimlane;whiteSpace=wrap;html=1;fillColor=#ffebee;strokeColor=#c62828;fontStyle=1;fontSize=14;startSize=30;swimlaneLine=1;" vertex="1" parent="1">
          <mxGeometry x="760" y="220" width="180" height="100" as="geometry"/>
        </mxCell>
        <mxCell id="PAPI" value="PokeAPI&#xa;Externa" style="rounded=1;whiteSpace=wrap;html=1;fillColor=#ffebee;strokeColor=#c62828;fontSize=11;" vertex="1" parent="external-group">
          <mxGeometry x="50" y="40" width="80" height="40" as="geometry"/>
        </mxCell>

        <!-- DTOs & Entities Group -->
        <mxCell id="dto-group" value="DTOs &amp; Entities" style="swimlane;whiteSpace=wrap;html=1;fillColor=#f1f8e9;strokeColor=#689f38;fontStyle=1;fontSize=14;startSize=30;swimlaneLine=1;" vertex="1" parent="1">
          <mxGeometry x="460" y="380" width="280" height="100" as="geometry"/>
        </mxCell>
        <mxCell id="BDTO" value="BattleDTO" style="rounded=1;whiteSpace=wrap;html=1;fillColor=#f1f8e9;strokeColor=#689f38;fontSize=10;" vertex="1" parent="dto-group">
          <mxGeometry x="20" y="40" width="60" height="25" as="geometry"/>
        </mxCell>
        <mxCell id="PDTO" value="PokemonDTO" style="rounded=1;whiteSpace=wrap;html=1;fillColor=#f1f8e9;strokeColor=#689f38;fontSize=10;" vertex="1" parent="dto-group">
          <mxGeometry x="90" y="40" width="70" height="25" as="geometry"/>
        </mxCell>
        <mxCell id="BE" value="Battle Entity" style="rounded=1;whiteSpace=wrap;html=1;fillColor=#f1f8e9;strokeColor=#689f38;fontSize=10;" vertex="1" parent="dto-group">
          <mxGeometry x="20" y="65" width="70" height="25" as="geometry"/>
        </mxCell>
        <mxCell id="PE" value="Pokemon Entity" style="rounded=1;whiteSpace=wrap;html=1;fillColor=#f1f8e9;strokeColor=#689f38;fontSize=10;" vertex="1" parent="dto-group">
          <mxGeometry x="100" y="65" width="80" height="25" as="geometry"/>
        </mxCell>

        <!-- Connections Frontend -->
        <mxCell id="edge1" style="edgeStyle=orthogonalEdgeStyle;rounded=0;orthogonalLoop=1;jettySize=auto;html=1;strokeWidth=2;strokeColor=#333333;endArrow=classic;" edge="1" parent="1" source="BROWSER" target="WEB">
          <mxGeometry relative="1" as="geometry"/>
        </mxCell>

        <mxCell id="edge2" style="edgeStyle=orthogonalEdgeStyle;rounded=0;orthogonalLoop=1;jettySize=auto;html=1;strokeWidth=2;strokeColor=#333333;endArrow=classic;" edge="1" parent="1" source="WEB" target="WC">
          <mxGeometry relative="1" as="geometry"/>
        </mxCell>

        <mxCell id="edge3" style="edgeStyle=orthogonalEdgeStyle;rounded=0;orthogonalLoop=1;jettySize=auto;html=1;strokeWidth=2;strokeColor=#333333;endArrow=classic;" edge="1" parent="1" source="BROWSER" target="BC">
          <mxGeometry relative="1" as="geometry">
            <Array as="points">
              <mxPoint x="210" y="50"/>
              <mxPoint x="415" y="50"/>
            </Array>
          </mxGeometry>
        </mxCell>

        <mxCell id="edge4" style="edgeStyle=orthogonalEdgeStyle;rounded=0;orthogonalLoop=1;jettySize=auto;html=1;strokeWidth=2;strokeColor=#333333;endArrow=classic;" edge="1" parent="1" source="BROWSER" target="PC">
          <mxGeometry relative="1" as="geometry">
            <Array as="points">
              <mxPoint x="210" y="40"/>
              <mxPoint x="630" y="40"/>
            </Array>
          </mxGeometry>
        </mxCell>

        <!-- Connections Controllers -> Services -->
        <mxCell id="edge5" style="edgeStyle=orthogonalEdgeStyle;rounded=0;orthogonalLoop=1;jettySize=auto;html=1;strokeWidth=2;strokeColor=#333333;endArrow=classic;" edge="1" parent="1" source="WC" target="BS">
          <mxGeometry relative="1" as="geometry"/>
        </mxCell>

        <mxCell id="edge6" style="edgeStyle=orthogonalEdgeStyle;rounded=0;orthogonalLoop=1;jettySize=auto;html=1;strokeWidth=2;strokeColor=#333333;endArrow=classic;" edge="1" parent="1" source="BC" target="BS">
          <mxGeometry relative="1" as="geometry">
            <Array as="points">
              <mxPoint x="415" y="180"/>
              <mxPoint x="405" y="180"/>
            </Array>
          </mxGeometry>
        </mxCell>

        <mxCell id="edge7" style="edgeStyle=orthogonalEdgeStyle;rounded=0;orthogonalLoop=1;jettySize=auto;html=1;strokeWidth=2;strokeColor=#333333;endArrow=classic;" edge="1" parent="1" source="PC" target="PS">
          <mxGeometry relative="1" as="geometry">
            <Array as="points">
              <mxPoint x="630" y="180"/>
              <mxPoint x="515" y="180"/>
            </Array>
          </mxGeometry>
        </mxCell>

        <!-- Connections Services -> Repositories -->
        <mxCell id="edge8" style="edgeStyle=orthogonalEdgeStyle;rounded=0;orthogonalLoop=1;jettySize=auto;html=1;strokeWidth=2;strokeColor=#333333;endArrow=classic;" edge="1" parent="1" source="BS" target="BR">
          <mxGeometry relative="1" as="geometry">
            <Array as="points">
              <mxPoint x="405" y="340"/>
              <mxPoint x="105" y="340"/>
            </Array>
          </mxGeometry>
        </mxCell>

        <mxCell id="edge9" style="edgeStyle=orthogonalEdgeStyle;rounded=0;orthogonalLoop=1;jettySize=auto;html=1;strokeWidth=2;strokeColor=#333333;endArrow=classic;" edge="1" parent="1" source="BS" target="PR">
          <mxGeometry relative="1" as="geometry">
            <Array as="points">
              <mxPoint x="405" y="350"/>
              <mxPoint x="220" y="350"/>
            </Array>
          </mxGeometry>
        </mxCell>

        <mxCell id="edge10" style="edgeStyle=orthogonalEdgeStyle;rounded=0;orthogonalLoop=1;jettySize=auto;html=1;strokeWidth=2;strokeColor=#333333;endArrow=classic;" edge="1" parent="1" source="PS" target="PR">
          <mxGeometry relative="1" as="geometry">
            <Array as="points">
              <mxPoint x="515" y="340"/>
              <mxPoint x="220" y="340"/>
            </Array>
          </mxGeometry>
        </mxCell>

        <mxCell id="edge11" style="edgeStyle=orthogonalEdgeStyle;rounded=0;orthogonalLoop=1;jettySize=auto;html=1;strokeWidth=2;strokeColor=#333333;endArrow=classic;" edge="1" parent="1" source="PS" target="RT">
          <mxGeometry relative="1" as="geometry"/>
        </mxCell>

        <!-- Connections External API -->
        <mxCell id="edge12" style="edgeStyle=orthogonalEdgeStyle;rounded=0;orthogonalLoop=1;jettySize=auto;html=1;strokeWidth=2;strokeColor=#333333;endArrow=classic;" edge="1" parent="1" source="RT" target="PAPI">
          <mxGeometry relative="1" as="geometry"/>
        </mxCell>

        <!-- Connections Database -->
        <mxCell id="edge13" style="edgeStyle=orthogonalEdgeStyle;rounded=0;orthogonalLoop=1;jettySize=auto;html=1;strokeWidth=2;strokeColor=#333333;endArrow=classic;" edge="1" parent="1" source="BR" target="H2">
          <mxGeometry relative="1" as="geometry"/>
        </mxCell>

        <mxCell id="edge14" style="edgeStyle=orthogonalEdgeStyle;rounded=0;orthogonalLoop=1;jettySize=auto;html=1;strokeWidth=2;strokeColor=#333333;endArrow=classic;" edge="1" parent="1" source="PR" target="H2">
          <mxGeometry relative="1" as="geometry"/>
        </mxCell>

        <!-- DTOs & Entities Connections -->
        <mxCell id="edge15" style="edgeStyle=orthogonalEdgeStyle;rounded=0;orthogonalLoop=1;jettySize=auto;html=1;strokeWidth=1;strokeColor=#666666;endArrow=classic;dashed=1;" edge="1" parent="1" source="BS" target="BDTO">
          <mxGeometry relative="1" as="geometry">
            <Array as="points">
              <mxPoint x="405" y="360"/>
              <mxPoint x="510" y="360"/>
            </Array>
          </mxGeometry>
        </mxCell>

        <mxCell id="edge16" style="edgeStyle=orthogonalEdgeStyle;rounded=0;orthogonalLoop=1;jettySize=auto;html=1;strokeWidth=1;strokeColor=#666666;endArrow=classic;dashed=1;" edge="1" parent="1" source="PS" target="PDTO">
          <mxGeometry relative="1" as="geometry">
            <Array as="points">
              <mxPoint x="515" y="360"/>
              <mxPoint x="585" y="360"/>
            </Array>
          </mxGeometry>
        </mxCell>

        <mxCell id="edge17" style="edgeStyle=orthogonalEdgeStyle;rounded=0;orthogonalLoop=1;jettySize=auto;html=1;strokeWidth=1;strokeColor=#666666;endArrow=classic;dashed=1;" edge="1" parent="1" source="BR" target="BE">
          <mxGeometry relative="1" as="geometry">
            <Array as="points">
              <mxPoint x="105" y="500"/>
              <mxPoint x="515" y="500"/>
            </Array>
          </mxGeometry>
        </mxCell>

        <mxCell id="edge18" style="edgeStyle=orthogonalEdgeStyle;rounded=0;orthogonalLoop=1;jettySize=auto;html=1;strokeWidth=1;strokeColor=#666666;endArrow=classic;dashed=1;" edge="1" parent="1" source="PR" target="PE">
          <mxGeometry relative="1" as="geometry">
            <Array as="points">
              <mxPoint x="220" y="500"/>
              <mxPoint x="600" y="500"/>
            </Array>
          </mxGeometry>
        </mxCell>

        <!-- Title -->
        <mxCell id="title" value="Arquitetura do Sistema PokeAPI - Batalhas Pokémon" style="text;html=1;strokeColor=none;fillColor=none;align=center;verticalAlign=middle;whiteSpace=wrap;rounded=0;fontSize=18;fontStyle=1;fontColor=#1a1a1a;" vertex="1" parent="1">
          <mxGeometry x="450" y="10" width="400" height="30" as="geometry"/>
        </mxCell>

        <!-- Legend -->
        <mxCell id="legend-container" value="" style="rounded=1;whiteSpace=wrap;html=1;fillColor=#f5f5f5;strokeColor=#666666;" vertex="1" parent="1">
          <mxGeometry x="760" y="380" width="180" height="100" as="geometry"/>
        </mxCell>
        <mxCell id="legend-title" value="Legenda:" style="text;html=1;strokeColor=none;fillColor=none;align=left;verticalAlign=top;whiteSpace=wrap;rounded=0;fontSize=12;fontStyle=1;" vertex="1" parent="1">
          <mxGeometry x="770" y="390" width="60" height="20" as="geometry"/>
        </mxCell>
        <mxCell id="legend-solid" value="━━━ Fluxo de dados" style="text;html=1;strokeColor=none;fillColor=none;align=left;verticalAlign=middle;whiteSpace=wrap;rounded=0;fontSize=11;" vertex="1" parent="1">
          <mxGeometry x="770" y="415" width="150" height="20" as="geometry"/>
        </mxCell>
        <mxCell id="legend-dashed" value="┅┅┅ Uso de DTOs/Entities" style="text;html=1;strokeColor=none;fillColor=none;align=left;verticalAlign=middle;whiteSpace=wrap;rounded=0;fontSize=11;" vertex="1" parent="1">
          <mxGeometry x="770" y="440" width="150" height="20" as="geometry"/>
        </mxCell>

      </root>
    </mxGraphModel>
  </diagram>
</mxfile>

